<?xml version="1.0" encoding="iso-8859-1"?>
<svg fill="#000000" version="1.1"  xmlns="http://www.w3.org/2000/svg"
	xmlns:xlink="http://www.w3.org/1999/xlink"
	width="800px" height="800px" viewBox="0 0 58.134 58.134"
	xml:space="preserve">
<g>
	<path d="M11.759,7.316v50.817h12.271V51.33h5.432v6.804h1.763V51.33h5.282v6.804h9.864V7.316H11.759z M15.929,9.991h9.832v8.495
		h-9.832V9.991z M15.929,21.87h9.832v8.496h-9.832V21.87z M15.929,33.748h9.832v8.496h-9.832V33.748z M23.166,50.623
		c0,0-0.212,0-0.472,0s-0.472-0.403-0.472-0.899c0-0.497,0.316-1.352,0.707-1.907c0.391-0.558,0.958-1.011,1.269-1.011h0.562
		l-1.593,2.31L23.166,50.623L23.166,50.623z M25.314,50.623h-0.944v-1.798l1.364-2.011l1.169-0.009l-1.588,2.31L25.314,50.623
		L25.314,50.623z M27.462,49.115v1.508h-0.944v-1.798l1.369-2.02h1.138L27.462,49.115z M30.167,50.505h-0.943v-3.699h0.943V50.505z
		 M32.015,50.505h-0.943v-3.699h0.943V50.505z M34.835,50.623h-0.946v-1.508l-1.538-2.31h1.114l1.368,2.02v1.798H34.835z
		 M36.981,50.623h-0.944v-1.508l-1.57-2.31h1.147l1.367,2.02V50.623z M38.657,50.623h-0.472v-1.508l-1.617-2.31c0,0,0.267,0,0.596,0
		c0.33,0,0.902,0.453,1.28,1.011c0.378,0.556,0.684,1.41,0.684,1.907C39.13,50.22,38.918,50.623,38.657,50.623z M42.086,42.244
		h-9.834v-8.496h9.834V42.244z M42.086,30.366h-9.834V21.87h9.834V30.366z M42.086,18.486h-9.834V9.991h9.834V18.486z"/>
	<polygon points="10.069,6.373 48.065,6.373 46.334,0 11.721,0 	"/>
</g>
</svg>
